<?xml version="1.0"?>
<svg xmlns="http://www.w3.org/2000/svg" id="Capa_1" enable-background="new 0 0 512 512" height="512px" viewBox="0 0 512 512" width="512px"><g><g><path d="m206.686 96.656c-27.873 27.873-43.223 64.931-43.223 104.349 0 81.558 66.002 147.572 147.572 147.572 39.418 0 76.477-15.35 104.349-43.223s43.223-64.931 43.223-104.349-15.35-76.477-43.223-104.349-64.931-43.223-104.349-43.223-76.477 15.35-104.349 43.223zm236.92 104.35c0 35.411-13.79 68.703-38.829 93.742-25.04 25.04-58.331 38.829-93.742 38.829-73.269 0-132.571-59.294-132.571-132.571 0-35.411 13.79-68.703 38.829-93.742s58.331-38.829 93.742-38.829c73.268-.001 132.571 59.293 132.571 132.571z" data-original="#000000" class="active-path" data-old_color="#000000" fill="#FFFFFF"/><path d="m246.981 246.624c-2.929-2.929-7.678-2.929-10.607 0s-2.929 7.678 0 10.607l11.556 11.557c1.464 1.464 3.384 2.197 5.304 2.197 6.622 0 10.042-8.066 5.304-12.805z" data-original="#000000" class="active-path" data-old_color="#000000" fill="#FFFFFF"/><path d="m368.21 148.508c1.464 1.464 3.384 2.196 5.304 2.196 6.622 0 10.042-8.066 5.304-12.804l-11.557-11.557c-2.929-2.929-7.678-2.929-10.607 0s-2.929 7.678 0 10.607z" data-original="#000000" class="active-path" data-old_color="#000000" fill="#FFFFFF"/><path d="m297.688 211.373c-4.132-.283-7.713 2.836-7.997 6.969s2.836 7.713 6.969 7.997c22.648 1.549 41.25-17.24 39.708-39.708-.284-4.133-3.86-7.253-7.997-6.969-4.133.284-7.253 3.864-6.969 7.997.441 6.428-1.911 12.719-6.453 17.261-4.543 4.542-10.835 6.894-17.261 6.453z" data-original="#000000" class="active-path" data-old_color="#000000" fill="#FFFFFF"/><path d="m59.223 512c15.162 0 30.325-5.771 41.868-17.315.115-.115 103.54-122.85 103.655-122.987 31.581 19.749 68.12 30.325 106.289 30.325 53.694 0 104.174-20.909 142.141-58.877 78.376-78.377 78.376-205.905 0-284.282-30.031-30.03-68.005-49.486-109.816-56.263-4.092-.663-7.942 2.114-8.604 6.204-.663 4.089 2.115 7.942 6.204 8.604 38.683 6.271 73.819 24.274 101.609 52.064 72.527 72.528 72.527 190.539 0 263.067-35.134 35.134-81.847 54.483-131.534 54.483-36.925 0-72.598-10.64-103.559-31.464-96.92-65.097-110.857-203.204-27.975-286.086 35.525-35.525 82.773-54.87 133.035-54.464 4.136.032 7.528-3.298 7.561-7.441.033-4.142-3.298-7.527-7.44-7.561-54.313-.436-105.373 20.467-143.763 58.858-67.306 67.306-76.811 170.857-28.52 248.402l-66.666 56.202c-3.167 2.67-3.57 7.402-.899 10.569 2.669 3.167 7.401 3.571 10.569.9l65.449-55.177c12.117 16.515 26.923 31.319 43.44 43.465-.085.101-101.683 120.751-101.783 120.851-17.237 17.237-45.284 17.237-62.521 0-19.268-19.268-16.792-51.686 6.074-67.585.546-.379-.965.842 26.32-22.146 3.167-2.67 3.57-7.402.899-10.569-2.67-3.167-7.401-3.571-10.569-.9l-25.508 21.505c-30.15 21.227-33.699 64.428-7.824 90.303 11.543 11.544 26.706 17.315 41.868 17.315z" data-original="#000000" class="active-path" data-old_color="#000000" fill="#FFFFFF"/></g></g> </svg>
