<?xml version="1.0"?>
<svg xmlns="http://www.w3.org/2000/svg" height="512px" viewBox="-21 -21 682.65462 682" width="512px"><g><path d="m345 564.324219h-18.75v-18.746094h18.75zm-31.25 0h-18.75v-18.746094h18.75zm0 0" data-original="#000000" class="active-path" data-old_color="#000000" fill="#00D95F"/><path d="m369.972656 283.175781v-163.117187h-99.945312v248.929687l19.34375 19.339844h61.257812l19.34375-19.339844v-52.066406h-18.75v44.296875l-8.359375 8.359375h-45.726562l-8.359375-8.359375v-222.414062h62.445312v144.371093zm0 0" data-original="#000000" class="active-path" data-old_color="#000000" fill="#00D95F"/><path d="m270.027344 520.578125h99.945312v-99.945313h-99.945312zm18.75-81.195313h62.445312v62.445313h-62.445312zm0 0" data-original="#000000" class="active-path" data-old_color="#000000" fill="#00D95F"/><path d="m580.984375 212.214844c-28.875-69.710938-83.167969-124.007813-152.882813-152.882813l-7.171874 17.316407c65.085937 26.964843 115.777343 77.65625 142.738281 142.738281zm0 0" data-original="#000000" class="active-path" data-old_color="#000000" fill="#00D95F"/><path d="m546.265625 94.050781c-60.433594-60.4375-140.796875-93.722656-226.265625-93.722656-85.472656 0-165.828125 33.285156-226.265625 93.722656-122.269531 122.269531-123.445313 315.398438-12.160156 439.65625l13.964843-12.511719c-49.511718-55.28125-76.78125-126.621093-76.78125-200.878906 0-166.105468 135.140626-301.238281 301.242188-301.238281 166.105469 0 301.238281 135.132813 301.238281 301.238281 0 166.105469-135.132812 301.238282-301.238281 301.238282-74.257812 0-145.597656-27.269532-200.882812-76.777344l-12.507813 13.964844c124.382813 111.398437 317.507813 109.988281 439.65625-12.160157 60.4375-60.4375 93.722656-140.792969 93.722656-226.265625s-33.285156-165.828125-93.722656-226.265625zm0 0" data-original="#000000" class="active-path" data-old_color="#000000" fill="#00D95F"/></g> </svg>
